<?xml version="1.0"?><svg version="1.2" baseProfile="tiny-ps" viewBox="0 0 300 300" xmlns="http://www.w3.org/2000/svg" xmlns:xlink="http://www.w3.org/1999/xlink"><title>MaWe</title><g><g fill="#fefefe" transform="matrix(.1 0 0 -.1 0 300)"><path d="M0 1500V0h3000v3000H0V1500z"/></g><g fill="#e4e4e2" transform="matrix(.1 0 0 -.1 0 300)"><path d="m412 2448-10-13-16-135c-9-74-27-220-41-325-60-460-96-753-98-790l-2-40 162-3 162-2 5 32c5 28 29 283 55 576l6 72 10 1h9l62-193c33-106 82-260 109-341l47-148 116 3 116 3 105 327c57 180 106 327 107 325 3-2 42-297 75-561 6-44 12-83 15-88l5-8h319v33c0 17-16 154-35 302-44 339-68 517-100 769-14 109-28 203-31 207l-5 9h-359l-10-25c-9-23-86-283-161-539-29-99-35-113-44-105-2 3-47 146-101 319-53 173-100 323-105 333l-10 17H422l-10-12zm1460 0c-9-12-102-294-158-482l-24-79 41-311 40-311 10-10 9-9 11 11c10 10 84 244 144 456 15 53 31 97 36 97 4 0 24-51 43-112 19-62 64-210 101-328 36-118 69-218 74-223l7-7 179 2 179 3 37 290c21 160 56 434 79 610s42 340 43 365l2 45-154 3-154 3-9-9-9-9-29-318c-17-176-30-328-30-338v-19l-12 4-12 4-64 200c-35 109-81 253-102 320-21 66-43 131-49 142l-12 22h-207l-10-12zM373 870l-39-70-37 65c-21 36-42 65-47 65h-10V750h20v68l1 67 23-40c14-22 31-49 38-59l14-19 37 64 36 64 1-72v-73h20v179l-9 5-9 6-39-70zm177-16c-22-48-40-91-40-95 0-18 17-8 28 16l12 25h90l12-25c11-24 28-34 28-16 0 14-78 181-85 181-3 0-23-39-45-86zm80-26c0-5-16-8-35-8s-35 2-35 5c0 2 8 20 17 40l17 36 18-33c9-18 17-36 18-40zm110 102c0-8 12-52 27-98l27-82 9 3c5 1 20 32 33 67 14 35 26 65 28 67 1 2 14-28 27-67l24-70 9 3c6 2 22 39 37 83 32 90 32 94 20 94h-9l-24-72-25-73-24 73c-14 41-29 74-34 75l-10 2-26-75-26-74-23 69c-12 39-26 74-31 80l-9 9v-14zm340-85v-95h131l-6 10-6 10h-99v60h90v20h-90v70h100v20h-120v-95zm348 89-8-7V750h101l22 12c12 6 27 18 34 27l12 16 1 37v37l-22 26-23 26-55 6-55 5-7-8zm122-39 20-18v-67l-20-20-20-20h-90v153l45-6 46-5 19-17zm144-50V745l3 53c2 29 2 74 0 100l-3 47V845zm160 85c-12-5-29-19-38-32l-16-22v-77l25-24 24-25h36c20 0 45 5 56 10l19 11v79h-19l-3-37-3-38-37-3-37-3-20 20-21 21v69l27 21 28 22 25-6c14-2 34-8 45-12l20-7-15 16c-8 9-29 19-45 22l-30 4-21-9zm213 3c-4-3-7-44-7-89v-83l10-6 10-6v95c0 96-1 102-13 89zm98-3-6-10h71V750h20v170h61l-6 10-6 10h-128l-6-10zm445-84v-96h120v20h-100v159l-10 6-10 6v-95zm-221 0c-21-46-39-87-39-90 0-15 18-3 28 19l12 25h97l11-25c6-14 16-25 22-25 14 0 15-3-30 94l-41 86h-20l-40-84zm71 14 20-40h-79l17 40c9 22 18 40 19 40 2 0 12-18 23-40z"/></g><g fill="#c2c3c0" transform="matrix(.1 0 0 -.1 0 300)"><path d="M411 2438c-5-13-30-187-55-388-26-201-62-484-80-630-19-146-32-268-30-272l5-8h308l6 11c4 6 21 161 38 345l31 334 10-3 11-4 86-269c48-148 98-300 111-339l23-70 112-3 112-3 85 263c46 145 95 296 107 335 13 40 24 71 26 69s22-147 44-322 42-325 44-331l4-13h312l5 15 6 14-82 638-83 638-11 7-11 8h-333l-11-13c-6-8-53-157-105-331-52-175-97-320-100-324-3-3-9-3-12 1-4 3-52 154-108 334l-101 328-178 3-177 2-9-22zm1400-175c-33-104-72-226-87-273l-26-85 7-85c3-47 21-191 38-320l32-235 16-3 16-3 63 213c34 117 71 241 82 276l19 63 12-4 11-3 100-325c55-178 105-327 110-331l11-8h334l7 11c9 15 172 1281 167 1292l-4 7h-310l-4-12c-2-7-18-159-34-337l-31-325-9-9-9-9-5 9c-2 4-34 100-70 213s-84 265-108 338l-43 132h-224l-61-187zM240 840v-90h20v145l33-58 32-57 10 3c5 2 24 27 40 56l30 53 6-74 5-73 2 95 2 94-11-11c-7-7-26-37-44-68l-32-57-37 66c-20 36-41 66-46 66h-10v-90zm307 4c-21-48-36-89-33-92 3-2 11 7 17 22l12 26h104l12-26c6-15 14-24 18-21 7 8-73 177-84 177-4 0-25-39-46-86zm77-1 7-23h-35c-20 0-36 2-36 5 0 2 7 23 17 46l16 41 12-23c7-13 16-34 19-46zm116 80c0-16 50-156 60-166l7-8 28 76 29 77 26-72c14-39 30-72 35-73l8-2 23 67c12 36 25 76 29 87l6 21h-8c-5 0-19-32-32-71-12-39-25-68-28-65-3 2-15 33-28 67-12 35-27 65-32 66l-9 3-23-71-23-72-9 14c-5 8-16 37-25 64-9 28-20 54-25 60l-9 9v-11zm340-83v-90h120v20h-100v69l48 4 47 3-47 2-48 2v69l53 4 52 3-62 2-63 2v-90zm342 3 3-88 53-3 52-3 30 30 30 29v73l-25 24-24 25h-122l3-87zm112 66 25-12 10-29 10-29-9-24c-12-31-39-45-89-45h-41v150h35c19 0 45-5 59-11zm160-69v-95l3 48c2 26 2 68 0 95l-3 47v-95zm131 65-25-24v-73l29-29 29-29h32c17 0 40 5 51 10l19 11v69h-19l-3-32-3-33-38-3-38-3-16 12c-8 7-19 24-24 37l-9 23 14 34 14 34 35 6 35 7 20-11c29-15 37-14 22 4l-12 15h-89l-24-25zm249-65v-95l3 48c2 26 2 68 0 95l-3 47v-95zm118 83 37-4 4-87 3-87 2 87 2 87 38 4 37 4h-160l37-4zm198-79c-44-95-44-94-32-94 5 0 14 11 20 25l12 25h99l15-27 15-28 1 13c0 19-71 172-81 172-4 0-26-39-49-86zm72 16 17-40h-40c-21 0-39 2-39 5 0 10 34 75 39 75 3 0 14-18 23-40zm148-20v-90h121l-6 10-6 10h-89v160h-20v-90z"/></g><g fill="#a3a599" transform="matrix(.1 0 0 -.1 0 300)"><path d="M406 2418c-21-127-157-1225-154-1246l3-27 149-3 149-3 9 9 8 8 30 324c16 179 30 331 30 338v12h25l110-342 110-343 104-3 104-3 11 11c6 6 59 160 117 342l106 331 6-34c3-19 23-167 43-329l37-295 10-12 9-13h299l5 13c4 11-89 758-149 1202l-12 90h-369l-97-325-96-325h-26l-101 328-100 327H411l-5-32zm1466 15c-5-10-47-136-92-280l-83-262 38-293c20-161 39-303 42-316l5-23 11 4 11 3 81 272c45 150 85 275 89 279l6 7 9-10c5-5 37-99 71-209s79-257 101-327l40-128h359v11c0 6 11 99 25 207 14 109 41 321 61 472 19 151 44 342 54 424 11 81 20 157 20 167v19h-310l-4-22c-3-13-17-158-31-323s-28-310-31-322l-4-23h-29l-6 23c-11 36-143 453-179 562l-33 100-106 3-106 3-9-18zM240 846v-85l10-6 10-6v73l1 73 32-57c18-32 35-58 39-58 10 0 71 110 65 117-3 3-17-18-31-46-15-28-28-51-31-51-2 0-21 29-42 65-20 36-41 65-45 65h-8v-84zm168 77c-2-5-1-46 2-93l7-85 1 93c2 84-1 105-10 85zm141-79c-22-48-37-89-35-92 3-2 11 7 17 22l12 26h104l12-26c6-15 14-24 17-21 6 6-72 177-81 177-3 0-24-39-46-86zm70 19 21-43h-90l22 45c12 24 23 44 24 42 1-1 11-21 23-44zm123 57c3-8 15-46 28-85 12-38 26-74 30-78l8-9 22 69c12 37 26 72 30 76l8 9 22-69c12-37 26-72 30-76l8-9 31 93c17 51 26 88 21 83s-20-41-33-79l-24-70-24 73c-14 41-29 74-34 75l-10 2-26-75-26-74-23 69c-12 39-27 75-33 80l-10 10 5-15zm338-80v-90l63 2 62 1-55 6-55 6-3 37-3 37 53 4 53 3-52 2-53 2v69l58 4 57 3-62 2-63 2v-90zm350-1v-91l57 4 56 5 24 27 23 27v57l-26 31-26 31h-108v-91zm120 61c11-11 22-31 26-45l6-25-16-26c-19-28-53-44-97-44h-29v160h90l20-20zm144-60v-95l3 48c2 26 2 68 0 95l-3 47v-95zm145 77c-22-17-39-51-39-80v-24l20-26 21-26 34-7 35-6 25 16 25 16v60h-20v-68l-24-6-25-6-25 10c-14 5-32 20-41 34l-17 25 7 31 7 30 21 15c25 17 60 19 88 5l19-11v10c0 12-26 21-63 21l-32-1-16-12zm235-77v-95l3 48c2 26 2 68 0 95l-3 47v-95zm123 83 32-4 4-87 3-87 2 87 2 87 38 4 37 4h-150l32-4zm198-73-37-81 6-7 7-6 6 22 5 22h107l15-27c8-16 15-23 16-18 0 15-73 175-80 175-4 0-24-36-45-80zm70 8 15-38h-82l4 8c2 4 10 24 18 44l14 38 7-8c5-4 15-24 24-44zm147-15-2-93 58 2 57 1-50 6-50 6-6 85-5 85-2-92z"/></g><g fill="#696969" transform="matrix(.1 0 0 -.1 0 300)"><path d="M410 2443c0-5-36-288-80-631s-80-632-80-643v-19h320v18c0 9 14 161 30 337 17 176 30 321 30 322 0 2 6 3 13 3h14l51-157c28-87 77-240 109-340l58-183h224l76 238c42 130 91 282 109 337l34 100 5-25c4-14 22-155 42-315 20-159 38-300 41-312l4-23h321l-6 43c-5 37-77 593-135 1052-12 88-23 170-26 183l-4 22-181-2-181-3-97-328c-54-180-101-330-104-334l-7-6-6 6c-4 4-52 154-108 334l-102 328-182 3-182 2v-7zM252 845l2-90 5 70 6 70 33-57c18-32 34-58 36-58 3 0 20 27 38 61l33 60 6-78 5-78 2 93c1 50 0 92-2 92s-21-30-41-66l-37-66-10 10c-6 6-26 37-44 69l-33 58 1-90zm298-2c-22-47-38-88-35-91 2-3 9 7 14 21s15 28 21 32c5 3 8 9 6 13s6 27 19 52l23 45 11-28c18-46 64-137 68-134 4 4-76 177-82 177-2 0-22-39-45-87zm193 75c2-7 15-46 28-85 12-40 26-73 30-73 7 0 35 67 54 129l8 25 26-73 26-73 10 1 10 1 27 82c16 45 24 78 19 72-5-5-19-40-31-78l-22-68-9 13c-5 8-18 43-30 77l-21 64-8-9c-4-4-18-39-30-77l-22-68-9 13c-5 8-18 42-30 77-11 34-23 62-26 62s-3-6 0-12zm339-75 3-88 58-1 57-1-55 4-55 4v78l48 4 47 3-47 2-48 2v69l58 4 57 3-63 2-63 2 3-87zm348-3v-90l43 2 42 1-37 4-38 4v159h91l24-25c14-13 25-20 25-15s-12 18-26 29l-27 21h-97v-90zm264 0v-95l3 48c2 26 2 68 0 95l-3 47v-95zm135 61-29-29 1-29 1-28 8 35 8 35 22 17 22 18h64l12-12 12-12v11c0 14-24 23-62 23h-30l-29-29zm245-56-1-90 4 42c2 23 2 64 0 90l-3 48v-90zm123 78 32-4 4-82 3-82 2 82 2 82 33 4 32 4h-140l32-4zm199-74c-20-45-35-83-33-85 3-4 21 31 59 116l16 35 36-77c19-43 38-78 41-78s-1 15-9 33c-41 95-62 137-67 137-3 0-23-37-43-81zm218-4 1-90 50-1 50-1-47 4-47 4-4 87-3 87v-90zm-1033 3c-1-9-6-28-13-42l-11-26-19-6c-11-3-17-8-15-11 3-2 14 0 25 6l19 10 13 30 12 30-5 13-5 13-1-17zm229-46v-12l33-20c17-11 41-20 52-20l20 1-38 14c-21 7-45 21-52 32l-14 18-1-13zm122-28-13-14h10c10 0 25 19 20 25-2 1-10-3-17-11z"/></g><g fill="#333" transform="matrix(.1 0 0 -.1 0 300)"><path d="M415 2438c-2-7-31-229-65-493s-70-544-81-622c-10-79-19-150-19-158v-16l157 3 158 3 17 180c9 99 22 245 29 325l11 145 10 19 10 18 10-10c10-10 37-90 167-497l58-180 110-3 109-3 109 341c60 187 111 340 114 340 4 0 21-120 39-267 18-148 38-301 44-340l10-73h153c83 0 154 2 156 5 5 4-3 72-51 445-51 388-110 845-110 847s-80 3-178 3h-178l-21-67c-12-38-49-162-83-278-34-115-70-235-79-265l-18-55h-27l-64 205c-34 113-81 262-103 333l-40 127H419l-4-12zm-6-1520c-2-7-1-47 2-88l5-75 2 88c2 81-1 104-9 75zm178-1-5-14h26l-5 14c-3 7-6 13-8 13s-5-6-8-13zm269-4-7-18 12 12c7 7 10 15 7 18s-9-2-12-12zm224-70c0-47 3-84 6-81s5 40 5 81v76l52 4 52 3-57 2-58 2v-87zm373 80c15-2 37-2 50 0l22 4h-100l28-4zm241-78-1-90 4 42c2 23 2 64 0 90l-3 48v-90zm189 78c9-2 23-2 30 0l12 5h-60l18-5zm191-78-1-90 4 42c2 23 2 64 0 90l-3 48v-90zm123 78 32-4 4-82 3-82 2 82 2 82 33 4 32 4h-140l32-4zm233-3c0-5 5-10 11-10h10l-6 10c-3 6-8 10-11 10-2 0-4-4-4-10zM250 910c0-5 5-10 11-10h10l-6 10c-3 6-8 10-11 10-2 0-4-4-4-10zm1290 6c0-2 8-10 18-17l17-14-14 18c-13 16-21 21-21 13zm284-18-19-23 23 19c21 18 27 26 19 26-2 0-12-10-23-22zm636-23c0-5 5-17 10-25l10-15v10c0 6-5 17-10 25l-10 15v-10zm-659-31 1-19 5 13c3 7 2 16-1 19-3 4-6-2-5-13zm-668-1c9-2 23-2 30 0l12 5h-60l18-5zm1347-22c0-6 4-13 10-16l10-6-6 15c-7 18-14 21-14 7zm-108-26c-17-37-14-45 4-12 9 16 14 31 11 33-2 2-9-7-15-21zM790 781c0-6 4-13 10-16l10-6-6 15c-7 18-14 21-14 7z"/></g></g></svg>