<?xml version="1.0"?><svg version="1.2" baseProfile="tiny-ps" viewBox="0 0 300 300" xmlns="http://www.w3.org/2000/svg" xmlns:xlink="http://www.w3.org/1999/xlink"><title>Mawe-Digital</title><g><g fill="#fff" transform="matrix(.1 0 0 -.1 0 300)"><path d="M0 1500V0h3000v3000H0V1500z"/></g><g fill="#e9e9e7" transform="matrix(.1 0 0 -.1 0 300)"><path d="M840 1928c0-7-18-152-40-322-21-170-37-313-34-318l5-8h148l5 8c2 4 9 61 15 127 7 66 15 140 18 165l6 45 56-170 56-170 57-3 57-3 53 166c28 91 55 165 59 165 3 0 12-73 20-162l14-163 83-3 82-3v23c0 22-63 524-76 601l-6 37h-185l-48-162c-26-90-49-165-50-166-2-2-20 50-40 115s-43 139-51 166l-16 47H840v-12zm687 5c-5-8 70-617 78-640l4-13h180l21 73c57 192 73 243 79 249l7 8 50-163 49-162 84-3 84-3 10 10 9 9 39 298c21 165 39 309 39 322v22h-159l-5-17c-3-10-10-87-17-171l-12-153-7 8c-4 4-31 81-59 171l-52 162h-115l-54-170c-29-93-55-168-58-166-3 4-31 277-32 319v17h-159l-4-7zm-767-813v-60h20v65l20-25c10-14 20-23 23-20 2 3 11 16 20 30l17 24v-75l10 6 10 6v98l-8 5-9 5-23-40-22-41-25 41c-13 23-26 41-29 41-2 0-4-27-4-60zm186 3c-15-31-24-58-21-61 2-3 7 3 11 12l6 16h68v-15c0-8 5-15 10-15 6 0 10 2 10 4 0 7-52 116-55 116-2 0-15-25-29-57zm44-5c0-5-7-8-15-8-17 0-18 2-9 25l7 17 8-14c5-7 9-16 9-20zm71 52c-1-20 31-110 39-110 4 0 13 19 20 43l13 42 13-30c7-16 13-36 14-42 0-7 4-13 9-13 12 0 44 96 38 113l-4 12-13-42-13-42-8 4c-4 3-10 19-14 35s-10 32-15 35l-9 6-12-41c-12-38-28-54-29-27-1 6-7 26-15 42l-13 30-1-15zm206 3c-4-3-7-30-7-60v-53h80v20h-60v30h50v20h-50v30h60v20h-33c-19 0-37-3-40-7zm203-52v-61h31c17 0 39 5 50 10l19 11v67l-14 11c-8 7-30 15-50 18l-36 6v-62zm84 17 11-18-11-17-11-18-32-3-31-3v82l31-3 32-3 11-17zm79-18v-65l4 33c2 17 2 47 0 65l-4 32v-65zm81 35-25-25 6-23c4-12 14-28 24-35l16-13 25 3 25 3 2 30 2 30-6-20c-7-25-20-34-44-28l-19 5-6 24-6 24 13 16 13 16 28-4 28-5v8c0 7-25 19-41 19-6 0-21-11-35-25zm143 18c-4-3-7-28-7-54v-48l10-6 10-6v60c0 62-1 66-13 54zm58-3-6-10h41v-100h20v100h15c8 0 15 5 15 10v10h-79l-6-10zm265-49v-61h81l-6 10c-3 6-17 10-31 10h-24v89l-10 6-10 6v-60zm-130-1-23-50 6-6 7-7 6 17 6 16h57l10-17 10-18 1 12c0 19-39 103-48 103-5 0-19-22-32-50zm44 5 5-15h-38l5 15c4 8 10 15 14 15s10-7 14-15z"/></g><g fill="#ccccc9" transform="matrix(.1 0 0 -.1 0 300)"><path d="M845 1928c-2-7-22-152-44-323l-40-310 12-7c7-4 42-8 79-8h67l4 8c3 4 10 70 17 147 6 77 15 151 19 164l7 25 55-170 55-169 50-3 51-3 10 13c5 7 32 84 59 170 27 87 52 158 55 158s12-71 19-157l13-158 10-12 9-13h139l5 13c2 7-14 153-36 325s-40 315-40 318c0 2-40 4-90 4h-89l-9-17c-5-10-28-85-52-166l-43-148-7 8c-6 6-55 163-96 306l-5 17H849l-4-12zm686-25c0-21 17-166 37-323l37-285 92-3 92-3 24 83c14 46 35 117 47 158s25 78 29 82l7 8 49-165 50-165h185v8c0 4 18 146 40 316s37 313 34 317l-5 9h-138l-6-11c-4-5-14-81-22-167-14-146-18-172-26-161-2 2-28 78-58 169l-54 165h-109l-54-169-53-168-7 7c-4 3-14 79-22 168l-15 162-77 3-78 3 1-38zm197-737-23-11-3-31-3-31 17-17 17-17 26 3 26 3 2 30 1 30-5-23c-2-13-11-26-18-28l-13-6-21 12-21 11v47l15 12 15 12 25-4 25-5v7c0 4-9 10-19 13l-19 5-24-12zm-966-53 1-58 6 45 6 45 18-32c21-40 30-41 47-5l14 27 7-40 6-40 2 58c0 31-1 57-3 57s-14-17-26-37l-22-38-22 37c-11 21-24 38-28 38h-8l2-57zm182 6c-14-28-23-53-20-56s8 2 12 11l6 16h66l6-16c4-9 9-14 12-11 6 5-43 107-51 107-3 0-16-23-31-51zm46-6v-13h-15c-16 0-19 9-9 35l7 17 8-14c5-7 9-19 9-25zm75 36c4-13 14-40 20-59l13-35 15 35c8 19 17 42 19 50l5 15 13-40c7-22 15-43 19-48l7-7 18 50c10 28 16 53 13 56s-12-14-20-38l-15-43-11 30c-6 17-14 36-16 43l-5 13-9-5c-5-4-12-20-16-36-4-17-10-30-15-30s-11 13-15 30c-4 16-11 33-17 36l-10 7 7-24zm197-31 3-53 40-1 40-2-32 5-33 4v38l28 4 27 4-27 2-28 1v39l33 4 32 4-43 1-43 2 3-52zm208-3v-55h67l16 18 17 19v24c0 14-5 30-12 37l-12 12h-76v-55zm78 33c7-7 12-22 12-35v-22l-19-11c-11-5-29-10-40-10h-21v90h56l12-12zm85-33v-60l4 33c2 18 2 45 0 60l-4 27v-60zm230 0v-60l4 33c2 18 2 45 0 60l-4 27v-60zm70 48 17-4v-100l10 6 10 6v88l18 4 17 5h-90l18-5zm119-38c-12-25-22-51-22-58l1-12 10 18 10 17h58l10-17 10-18 1 12c0 16-42 103-50 103-3 0-16-20-28-45zm47-17c1-5-8-8-19-8-23 0-24 4-8 33l11 22 8-20c4-11 8-23 8-27zm83 10-2-58 38 2 37 1-32 4-32 4-4 52-3 52-2-57z"/></g><g fill="#a3a59a" transform="matrix(.1 0 0 -.1 0 300)"><path d="M849 1938c-1-2-20-148-43-325l-42-323h163l13 158c7 86 16 163 20 170l6 13 54-170 54-171h115l52 163c28 89 54 166 58 170l8 8 12-138c7-76 15-153 18-170l5-33h79c44 0 79 2 79 5 0 35-83 632-89 638l-8 8-84-3-83-3-24-80c-13-44-35-118-49-164l-25-83-8 8c-5 5-27 72-51 149-23 77-46 148-51 158l-9 17h-84c-47 0-86-1-86-2zm681-15c0-12 69-554 76-595l6-38h174l49 165c26 91 52 165 56 165 5 0 22-46 39-102 17-57 40-131 52-166l20-63 86 3 87 3 40 315 41 315-74 3c-41 2-76 2-77 0-2-2-8-61-14-133-7-71-14-147-17-168l-6-37-8 5c-5 3-33 80-61 171l-53 165-55-3-54-3-54-169-54-169-9 9c-4 5-13 65-19 134s-14 142-17 163l-6 37h-148v-7zm-768-805 1-53 4 44 4 44 24-38 23-39 20 34 21 33 4-39 4-39 1 53 2 53-9-5c-4-3-14-19-21-36-16-39-27-38-47 5-9 19-20 35-25 35h-8l2-52zm187 6c-12-25-18-48-15-51 3-4 6-1 6 5v12h70v-12c0-6 3-9 6-5 6 6-32 97-41 97-3 0-15-21-26-46zm51-16c0-5-11-8-25-8-29 0-29 0-13 35l12 26 13-23c7-13 12-26 13-30zm61 61c-2-14 32-99 40-99 5 0 9 5 9 10 0 6-4 10-10 10-5 0-10 6-10 13-1 13-28 76-29 66zm60-31c-15-42-13-50 4-13l13 30 13-43c6-23 16-42 20-42 8 0 41 91 35 98-3 2-10-14-17-37l-12-40-8 4c-4 3-10 19-14 35s-10 32-15 35l-8 5-11-32zm149 2v-30l33 1 32 2-27 4-28 4v38l28 4 27 4-32 2-33 1v-30zm200-25v-55h56l22 16 22 15v55l-12 12-12 12h-76v-55zm78 33c7-7 12-22 12-35v-22l-19-11c-11-5-29-10-40-10h-21v90h56l12-12zm85-28v-55l4 28c2 15 2 39 0 55l-4 27v-55zm79 38-12-12v-54l18-13 17-14-13 17-13 17 3 28 3 28h73l-5 8c-2 4-17 7-32 7h-27l-12-12zm151-38v-55l4 28c2 15 2 39 0 55l-4 27v-55zm69 43 17-4 4-47 3-47 2 47 2 47 23 4 22 4h-45c-25 1-37-1-28-4zm122-40c-25-63-27-71-14-50l11 17h55l13-12 13-13-17 40c-9 22-19 46-22 53-9 22-20 13-39-35zm40 11c3-9 6-20 6-25v-9h-42l6 16c3 9 6 20 6 25 0 15 17 10 24-7zm90-19 1-50 30-1 30-1-27 4-27 4-4 47-4 47 1-50zm-403-13-1-23-22-9-23-9h15c8 0 21 3 28 8l14 8-5 24-4 24-2-23zm-510-19-1-23 38 2 37 1-32 4-32 4-4 17-5 17-1-22z"/></g><g fill="#797979" transform="matrix(.1 0 0 -.1 0 300)"><path d="M846 1918c-6-17-76-588-76-611v-18l78 3 77 3 15 162c8 89 18 164 21 168l7 6 54-168 54-168 55-3 55-3 54 168c29 92 55 170 57 172 8 10 12-11 22-124 6-66 14-141 17-167l6-48h159l-6 33c-8 48-75 575-75 592v15h-185l-39-133c-21-72-43-147-48-166l-10-33-7 8c-5 5-30 80-56 167l-48 157H849l-3-12zm12-760c-2-7-1-31 3-53l6-40 2 53c1 51-3 65-11 40zm268-4c-4-9-4-19-1-22s5 0 5 7v12l10-6 10-6-6 15c-8 20-10 20-18 0zm157 9c9-2 25-2 35 0l17 5h-70l18-5zm189-45 3-53 20-1 20-1-17 4-18 4v88l33 4 32 4-38 1-38 2 3-52zm161 2v-55l4 28c2 15 2 39 0 55l-4 27v-55zm230 0v-55l4 28c2 15 2 39 0 55l-4 27v-55zm75 43c12-2 30-2 40 0l17 5-40-1h-40l23-4zm139 1c-3-5 1-15 9-22 16-14 18-5 5 17l-8 13-6-8zm107-49 1-50 30-1 30-1-27 4-27 4-4 47-4 47 1-50zm-1404 25c6-11 13-20 16-20 2 0 0 9-6 20s-13 20-16 20c-2 0 0-9 6-20zm781-20c0-15-4-30-8-36-5-5-2-4 5 2l14 11-5 24-4 24-2-25zm485-17-7-18 12 12c7 7 10 15 7 18s-9-2-12-12zm-1110-10-7-18 12 12c7 7 10 15 7 18s-9-2-12-12zm64 12c0-5 5-17 10-25l10-15v10c0 6-5 17-10 25l-10 15v-10zm700-2c0-6 8-17 18-24l17-14-15 20c-8 11-16 22-17 24-2 2-3 0-3-6zm82-13v-25l5 13c2 6 2 18 0 25l-5 12v-25zm-622 1c0-6 4-13 10-16l10-6-6 15c-7 18-14 21-14 7zm-70-11c0-5 5-10 10-10 6 0 10 5 10 10 0 6-4 10-10 10-5 0-10-4-10-10zm193-17c9-2 25-2 35 0l17 5h-70l18-5z"/></g><g fill="#323232" transform="matrix(.1 0 0 -.1 0 300)"><path d="M850 1928c0-2-18-140-40-308s-40-311-40-317v-13h150v8c0 4 7 70 15 147s15 151 15 163v24l11-4 12-4 52-164 53-165 54-3 53-3 54 171c30 93 58 170 62 170s10-19 13-42c8-57 26-257 26-280v-18h150v33c-1 17-18 160-38 317l-37 285h-177l-48-158c-26-87-50-160-53-163-9-9-22 24-68 178l-44 148h-87c-49 0-88-1-88-2z"/></g></g></svg>